<?xml version="1.0" encoding="utf-8"?>
<!-- Generator: Adobe Illustrator 22.0.1, SVG Export Plug-In . SVG Version: 6.00 Build 0)  -->
<svg version="1.1" id="圖層_1" xmlns="http://www.w3.org/2000/svg" xmlns:xlink="http://www.w3.org/1999/xlink" x="0px" y="0px"
	 viewBox="0 0 54 54" style="enable-background:new 0 0 54 54;" xml:space="preserve">
<style type="text/css">
	.st0{fill:none;}
	.st1{fill:#FFFFFF;}
	.st2{fill:#DCE9AF;}
	.st3{fill:#4FB233;}
	.st4{fill:#B38C27;}
</style>
<path class="st0" d="M27,9.1c-9.8,0-17.8,8-17.8,17.9c0,9.9,8,17.9,17.8,17.9s17.8-8,17.8-17.9C44.8,17.1,36.8,9.1,27,9.1z"/>
<ellipse class="st1" cx="27" cy="27" rx="17.8" ry="17.9"/>
<path class="st2" d="M52.9,24.2c0.7,6.7-1.4,13.5-5.9,19.1C42,49.5,34.7,53,26.9,53c-5.9,0-11.7-2.1-16.3-5.8
	c-5.4-4.4-8.7-10.6-9.5-17.5C0.4,22.8,2.4,16,6.8,10.6c2.5-3.1,5.5-5.5,9-7.1C19.2,1.9,23,1,26.9,1c5.9,0,11.7,2.1,16.3,5.8
	C48.7,11.3,52.2,17.5,52.9,24.2z M44.8,27c0-9.9-8-17.9-17.8-17.9c-9.8,0-17.8,8-17.8,17.9c0,9.9,8,17.9,17.8,17.9
	C36.8,44.9,44.8,36.9,44.8,27z"/>
<path class="st3" d="M43.3,26c-0.2-0.7-0.4-1.4-0.6-2.1c-0.4-1.1-1-2.1-1.7-3.2c-2.5-3.7-6.7-5.9-11.1-5.9c-0.7,0-1.3,0-2,0.2
	c-1,0.2-1.8,0.4-2.6,0.7c-2.8,1.2-4.9,3.2-5.9,5.8c-0.2,0.6-0.4,1.2-0.5,1.9c0,0.2,0,0.4-0.1,0.7c0-0.2,0-0.4,0-0.5
	c0-0.2,0.1-0.4,0.1-0.5c0-0.1,0-0.3,0.1-0.4c0-0.2,0.1-0.3,0.1-0.5c0.1-0.2,0.1-0.5,0.1-0.5c1-2.9,3.4-5.2,6.5-6.4
	c0.6-0.2,1.1-0.4,1.7-0.5c1-0.3,1.6-1.3,1.4-2.3c-0.2-1-1.3-1.7-2.3-1.5c-0.7,0.2-1.5,0.4-2.2,0.6c-1,0.4-1.9,0.8-2.8,1.3
	c-0.2,0.1-0.4,0.3-0.6,0.4c-0.6,0.3-1.2,0.7-1.8,1.3l-1.4,1.4c-0.3,0.4-0.6,0.8-0.9,1.2c-0.3,0.4-0.6,0.9-0.9,1.5
	c-0.8,1.6-1.2,3.1-1.3,4.5c-0.4,4.2,1.4,8.2,4.8,10.3c0.8-1,1.6-1.8,2.2-2.6c1.4-1.6,2.4-2.8,3.2-3.6c-0.6,0-1.4-0.1-2.3-0.2
	c-0.7-0.1-1.5-0.2-2.4-0.2v-0.1c0.9-0.1,1.7-0.2,2.4-0.2c0.9-0.1,1.6-0.2,2.2-0.2c-0.7-0.7-1.6-1.6-2.7-3c-0.6-0.7-1.2-1.5-2-2.3
	l0.1-0.1c1,0.6,1.9,1.2,2.6,1.7c1.6,1,2.8,1.8,3.6,2.4c0.1-0.5,0.2-1.1,0.3-1.8c0.1-0.6,0.2-1.2,0.3-1.9H27c0.1,0.7,0.2,1.3,0.3,1.9
	c0.1,0.6,0.2,1.1,0.2,1.5c0.8-0.7,2-1.6,3.6-2.8c0.8-0.6,1.8-1.3,2.8-2.1l0.1,0.1c-0.8,1-1.6,1.8-2.2,2.6c-1.4,1.7-2.4,2.9-3.3,3.6
	c0.7,0,1.7,0.1,2.9,0.3c0.7,0.1,1.5,0.2,2.4,0.2V27c-0.9,0.1-1.7,0.2-2.4,0.2c-1,0.1-1.9,0.2-2.5,0.2c0.7,0.7,1.5,1.6,2.5,2.8
	c0.6,0.7,1.2,1.5,2,2.3l-0.1,0.1c-1-0.6-1.9-1.2-2.6-1.7c-1.3-0.9-2.4-1.5-3.1-2.1c-0.1,0.5-0.1,1-0.3,1.6c-0.1,0.6-0.2,1.2-0.3,1.9
	h-0.1c-0.1-0.7-0.2-1.3-0.3-1.9c-0.1-0.8-0.2-1.5-0.3-2c-0.8,0.8-2.1,1.8-4,3.1c-0.8,0.6-1.7,1.3-2.8,2.1c0.2,0.1,0.3,0.2,0.5,0.3
	c0.6,0.3,1.3,0.6,1.9,0.8c-3.2-0.7-5.9-3.2-7.2-6.6c-0.2-0.5-0.3-1-0.5-1.6c-0.3-1-1.3-1.6-2.3-1.3c-1,0.3-1.6,1.3-1.4,2.3
	c0.1,0.6,0.3,1.3,0.5,1.9c0.1,0.3,0.2,0.7,0.4,1.1c0.4,0.9,0.8,1.6,1.3,2.3l0.2,0.3c0.2,0.4,0.4,0.6,0.7,0.9c0.9,1,1.7,1.8,2.6,2.5
	c4.2,3.1,9.8,3.6,14.3,0.8l0.4-0.3c0.2-0.1,0.3-0.2,0.5-0.4c0.6-0.4,1.2-0.9,1.8-1.7l0.8-1.2c0.7-1.2,1.1-2.5,1.2-3.8
	c0,0.3,0,0.7-0.1,1c-0.5,3.2-2.8,6-6.2,7.5c0,0,0,0,0,0c0,0,0,0,0,0l-0.7,0.3c-0.5,0.2-1.1,0.3-1.6,0.5c-1,0.2-1.7,1.2-1.5,2.2
	c0.2,0.9,1,1.6,1.9,1.6l0,0c0.1,0,0.2,0,0.3,0c0.9-0.1,1.7-0.4,2.3-0.6c0.3-0.1,0.6-0.2,0.9-0.4c1.7-0.7,3-1.5,4.1-2.6
	c1.6-1.4,2.8-3,3.7-5c0.4-0.8,0.6-1.6,0.7-2.4c0.5-2.9,0.3-5.3-0.9-7.6L38,24.2c-0.1-0.3-0.3-0.6-0.5-0.9c-0.6-0.8-1.3-1.7-2.3-2.5
	L34,20c-0.6-0.4-1.3-0.6-2-0.8c3.1,0.7,5.8,3,7.1,6.2c0.1,0.3,0.2,0.6,0.3,0.9c0,0.2,0.1,0.4,0.1,0.6c0,0.1,0.1,0.2,0.1,0.4
	c0.2,0.9,1.1,1.6,1.9,1.5h0c1.1,0,1.9-0.9,1.9-1.9C43.5,26.5,43.4,26.3,43.3,26z"/>
<path class="st4" d="M15.4,11.1L15.4,11.1c0.1-0.4,0.1-0.7,0.1-1.1c0-0.4-0.1-0.7-0.2-1.1l0,0l0,0l0.6-0.2l0,0
	C16,9.6,16.1,10.4,16,11l0,0l0,0L15.4,11.1L15.4,11.1z"/>
<path class="st4" d="M15,8.6L15,8.6c-0.4-0.1-0.7-0.2-1-0.2h0l0,0l0.2-0.6h0c0.3,0,0.6,0.1,1,0.2l0,0l0,0L15,8.6L15,8.6z"/>
<path class="st4" d="M14.6,7.4L14.6,7.4c-0.5-0.1-0.8-0.2-1-0.2l0,0l0,0l0.2-0.6l0,0c0.3,0,0.7,0.1,1.1,0.2l0,0l0,0L14.6,7.4
	L14.6,7.4z"/>
<path class="st4" d="M53.4,24.2c-0.7-6.8-4.2-13.2-9.9-17.8c-4.7-3.8-10.6-5.9-16.6-5.9c-8,0-15.5,3.6-20.5,9.8
	c-4.4,5.5-6.5,12.4-5.7,19.4c0.7,7,4.2,13.4,9.6,17.8c4.7,3.8,10.6,5.9,16.6,5.9v0c8,0,15.5-3.6,20.5-9.8C52,38,54.1,31,53.4,24.2z
	 M47,43.4C42,49.5,34.7,53,26.8,53c-5.9,0-11.7-2.1-16.3-5.8c-5.4-4.4-8.7-10.6-9.5-17.5C0.4,22.8,2.4,16,6.8,10.6
	C11.7,4.5,19,1,26.9,1l0,0c5.9,0,11.7,2.1,16.3,5.8c5.6,4.5,9,10.7,9.7,17.4C53.6,30.9,51.5,37.7,47,43.4z M20.7,6.1l3-0.5L23.5,5
	l-0.6,0.1c0.1-0.5,0.1-0.9,0.2-1l-0.5-0.1c0,0.3-0.1,0.7-0.2,1.2v0l-1.7,0.3L20.7,6.1z M24.8,7.8l-0.7-4.2c0,0,0-0.1,0.1-0.1L25,3.4
	l-0.2,1.4c0,0,0,0.1,0,0.1c0,0,0,0.1,0.1,0.1c0.5,0.4,0.7,0.8,0.8,1c0.1,0.3,0.1,0.4,0,0.5c-0.1,0.1-0.2,0.2-0.4,0.2
	c-0.1,0-0.3,0-0.5-0.1l0.1,0.6c0.5,0.1,0.8,0,1.1-0.1C26,7,26.1,6.9,26.2,6.8c0.1-0.3,0.1-0.7-0.1-1.2c-0.1-0.2-0.3-0.5-0.7-0.7
	c-0.1-0.1-0.1-0.2-0.1-0.2L25.6,3l-0.4-0.2l-1.7,0.3c-0.1,0-0.1,0.1-0.1,0.1l0.8,4.7L24.8,7.8z M12.5,13.6l0.4,0.3l2.3-2.4l-0.4-0.3
	l-0.9,1l-0.8-0.8l0.9-0.9l-0.4-0.4l-2.1,2.2l0.4,0.3l0.8-0.8l0.8,0.8v0L12.5,13.6z M14.6,6.5l0.2,0.4l2.1-1.1l0,0.1
	c0,0.1,0,0.1-0.1,0.2c0,0.1,0,0.1-0.1,0.2l0,0l0,0c0,0-0.1,0-0.1,0c-0.1,0-0.2-0.1-0.3-0.1l-0.1,0l0,0.1L16,6.5c0,0,0.1,0,0.1,0.1
	l0,0l0,0c0,0,0,0,0,0l0,0l-1.2,0.7L15,7.6l0.3-0.2h0l0,0c0,0.3,0,0.6,0,0.9l0.4,0c0-0.2,0-0.3,0-0.5v0c0-0.2,0-0.4-0.1-0.6l0,0
	l0.2-0.1c0,0,0.1,0,0.1,0c0,0,0.1,0.1,0.2,0.3c0,0.1,0,0.1,0,0.2c0,0,0,0.1,0,0.1c0,0.1-0.2,0.1-0.4,0.2l0.3,0.4
	c0.3-0.1,0.5-0.2,0.6-0.3c0-0.1,0.1-0.1,0.1-0.2c0-0.1-0.1-0.3-0.4-1.1c0,0,0,0,0,0l0,0l0,0c0.1,0,0.2,0.1,0.4,0.2l0,0l0.5,1
	l0.4-0.2l-0.6-1v0l0-0.1c0-0.1,0.1-0.3,0.1-0.5l0,0c0,0,0,0,0,0l0.5,1l0,0C17.7,7,17.7,7,17.6,7.1l0.3,0.3c0.3-0.3,0.6-0.5,0.8-0.7
	l-0.3-0.3c0,0.1-0.1,0.1-0.1,0.2l-0.1,0.1l-0.3-0.5c0,0,0-0.1,0-0.1c0,0,0,0,0-0.1c0,0,0.1,0,0.1-0.1l0,0l0,0c0.3,0.3,0.6,0.5,1,0.7
	l0.3-0.3c-0.4-0.2-0.7-0.4-1-0.6l0,0l0,0c0.1-0.1,0.1-0.1,0.2-0.2l-0.4-0.2c-0.3,0.3-0.6,0.5-0.9,0.6c0,0,0,0,0,0l0,0l0,0l0,0
	l-0.4-0.1l0,0l1.4-0.8l-0.2-0.4l-1.6,0.8l0,0l-0.1-0.2L16,5.4l0.1,0.2l0,0L14.6,6.5z M11.2,13.1l1,0.7l0.3-0.4l-1-0.7L11.2,13.1z
	 M11.5,11c0.3,0,0.7,0.1,1.1,0.2l0.1-0.6c-0.5-0.1-0.8-0.1-1-0.1c0,0,0,0,0,0c0-0.2-0.1-0.5-0.1-0.9L11,9.8v0
	c0.1,0.4,0.2,0.8,0.2,1.1C11.2,10.9,11.3,11,11.5,11z M10.7,10.4l-0.5,0.2c0.2,0.4,0.3,0.7,0.3,1.1c0,0.1,0.1,0.1,0.3,0.1
	c0.3,0,0.6,0.1,0.9,0.2l0.1-0.6c-0.4-0.1-0.7-0.1-0.9-0.1c0,0-0.1,0-0.1-0.1C10.9,11.1,10.8,10.8,10.7,10.4z M21.3,4.3l-0.5,0.2
	c0.1,0.2,0.3,0.5,0.4,0.8l0.5-0.2C21.6,4.8,21.4,4.6,21.3,4.3z M20.4,3.9l0.1,0.5l2.8-0.5l-0.1-0.5l-1.1,0.2L22,3.2l-0.6,0.1
	l0.1,0.3v0L20.4,3.9z M16,11c0.1-0.6,0-1.4-0.3-2.2L15.2,9c0.1,0.4,0.2,0.7,0.2,1.1c0,0.3,0,0.6,0,1L16,11z M37.6,10.5l0.6,0.1
	c0-0.4,0-0.8-0.1-1.5l-0.6,0C37.6,9.7,37.6,10.1,37.6,10.5z M34.8,7.9c-0.2,0.2-0.6,0.5-1,0.7L34.1,9c0.7-0.3,1.3-0.9,1.7-1.7
	l0.9-1.8c0,0,0.1-0.1,0.1,0L38,6.1l-0.1,0.3l-1-0.5c0,0-0.1,0-0.1,0l-0.9,1.8c0,0.1,0,0.1,0,0.1l1,0.5l-0.5,1.1c0,0-0.1,0.1-0.1,0.1
	c-0.1,0-0.3-0.1-0.5-0.3l-0.2,0.5c0.3,0.3,0.6,0.4,0.9,0.4c0.1,0,0.2,0,0.3-0.1c0.1,0,0.1-0.1,0.2-0.2l0.6-1.3l0.9,0.5
	c0,0,0.1,0,0.1,0l0.9-1.8c0,0,0-0.1,0-0.1l-1-0.5l0.1-0.3L39.7,7l0.2-0.5l-3.4-1.7c-0.1-0.1-0.2,0-0.2,0.1l-1,2
	C35.2,7.3,35,7.6,34.8,7.9z M38.2,8.4C38.2,8.4,38.2,8.4,38.2,8.4l-1.6-0.8c0,0,0,0,0,0l0.1-0.3l1.6,0.8L38.2,8.4z M38.7,7.4
	C38.7,7.4,38.7,7.4,38.7,7.4l-0.1,0.3L37,6.9l0.1-0.2c0,0,0,0,0,0L38.7,7.4z M42.2,13.8L42.2,13.8C42.2,13.8,42.2,13.7,42.2,13.8
	l1.1-1.1c0,0,0-0.1,0-0.1l-2.1-2.1c0,0-0.1,0-0.1,0L40,11.5c0,0,0,0,0,0.1c0,0,0,0.1,0,0.1L42.2,13.8C42.1,13.7,42.2,13.8,42.2,13.8
	z M40.8,11.6l0.4-0.4v0l1.4,1.3l0,0L42.1,13h0L40.8,11.6C40.8,11.6,40.8,11.6,40.8,11.6z M30.5,5.3c0.1,0.1,0.2,0.2,0.3,0.2l1.4,0.2
	c0.1,0,0.3,0,0.5-0.2c0.1-0.1,0.2-0.3,0.3-0.7l-0.6-0.2c-0.1,0.2-0.1,0.3-0.1,0.4c0,0,0,0.1,0,0.1c-0.1,0-0.1,0-0.2,0L31.3,5
	c-0.1,0-0.2-0.1-0.2-0.1c0,0,0-0.1,0-0.2l0.1-0.5C32,4.2,32.5,4.1,32.9,4l-0.2-0.5c-0.4,0.1-0.9,0.2-1.5,0.2l0.1-0.5l-0.6-0.1
	l-0.3,2C30.4,5.1,30.4,5.2,30.5,5.3z M38.9,11.6c0.2-0.1,0.5-0.2,0.8-0.4c0.4-0.2,0.8-0.5,1.1-0.9l0.3-0.3l0,0l2.7,2.6c0,0,0,0,0,0
	c0,0.1,0,0.1-1,1.1c-0.2,0.1-0.3,0.2-0.4,0.2c-0.1,0-0.2,0.1-0.3,0c-0.2-0.1-0.5-0.3-0.8-0.9l-0.4,0.4l0,0c0.3,0.5,0.7,0.9,1,1
	c0.2,0.1,0.4,0.1,0.6,0c0.2-0.1,0.6-0.4,1.2-1l0.2-0.2c0.3-0.3,0.5-0.5,0.5-0.6c0,0,0-0.1,0-0.1c0,0,0,0-0.1-0.1l-3.1-3l0,0l0.2-0.2
	l0,0l2.9,2.9c0.1,0.1,0.2,0.1,0.3,0l0.7-0.7c0.1-0.1,0.1-0.2,0-0.3l-3.2-3.1c-0.1-0.1-0.2-0.1-0.3,0l-1.6,1.6
	c-0.6,0.6-1.2,1-1.9,1.3L38.9,11.6z M42.1,9l0.2-0.2c0,0,0.1,0,0.1,0l2.5,2.5c0,0,0,0.1,0,0.1l-0.1,0.1c0,0-0.1,0-0.1,0L42.1,9
	L42.1,9z M36.1,8.1L36.1,8.1c-0.3,0.2-0.8,0.5-1.4,0.7L35,9.3c0.6-0.2,1-0.5,1.4-0.7L36.1,8.1z M35.1,7.1l-0.5-0.3
	c-0.4,0.6-0.9,1-1.6,1.4l0.4,0.5C33.9,8.3,34.5,7.8,35.1,7.1z M35.4,6.3c-0.2-0.4-0.4-0.7-0.6-1l-0.5,0.3c0.2,0.2,0.4,0.5,0.6,0.9
	L35.4,6.3z M36,5.2c-0.2-0.4-0.4-0.7-0.6-1L35,4.5c0.2,0.2,0.4,0.5,0.5,0.9L36,5.2z M29.8,4.2c0,0.1,0.1,0.2,0.1,0.3l0.6-0.1
	C30.3,4,30.2,3.6,30,3.1l-0.6,0.2c0,0.1,0.1,0.2,0.2,0.3l-0.9-0.1c0.2-0.3,0.3-0.5,0.5-0.7l-0.5-0.3c-0.2,0.3-0.4,0.7-0.7,1l-0.5,0
	c0,0.2,0.1,0.4,0.1,0.6L29.8,4.2z M32.1,7c-0.1,0.4-0.1,0.5-0.1,0.6c-0.1,0-0.1,0-0.2,0l-0.8-0.1c-0.1,0-0.2,0-0.2-0.1
	c0,0,0-0.1,0-0.2l0.1-0.4c0.9-0.1,1.5-0.2,1.9-0.3l-0.2-0.5c-0.4,0.1-0.9,0.2-1.6,0.3l0.1-0.5l-0.6-0.1L30,7.5c0,0.1,0,0.2,0.1,0.3
	c0.1,0.1,0.2,0.2,0.3,0.2l1.5,0.2c0.1,0,0.3,0,0.5-0.2c0.1-0.1,0.2-0.3,0.3-0.8L32.1,7z M34.6,49.2l-0.2-0.7l1.1-0.4l-0.3-0.9
	l-1.1,0.4L33.9,47l1.2-0.4l-0.3-0.8l-2.2,0.8l1.3,3.9l2.2-0.8l-0.3-0.9L34.6,49.2z M30.6,48.6l-1.2,0.1l-0.1-0.7l1.3-0.2L30.6,47
	l-2.3,0.3l0.5,4.1l1.1-0.1l-0.2-1.6l1.2-0.1L30.6,48.6z M23.6,6c0-0.1-0.1-0.2-0.2-0.2l-2.3,0.4c-0.1,0-0.2,0.1-0.2,0.2l0.3,1.9
	l0.6-0.1l0-0.3l0,0l1.5-0.3l0,0.3l0.6-0.1L23.6,6z M21.7,7.5L21.7,7.5l-0.1-0.8c0,0,0-0.1,0.1-0.1L23,6.4c0.1,0,0.1,0,0.1,0.1
	l0.1,0.8L21.7,7.5z M29.2,7.1c0,0.1,0,0.1,0,0.1c0,0,0,0.1-0.1,0.1c-0.1,0-0.3,0-0.6-0.2l-0.1,0.6C28.7,7.9,29,8,29.2,7.9
	c0.2,0,0.3-0.1,0.4-0.1c0.1-0.1,0.1-0.2,0.1-0.3l0.4-2.7c0-0.1,0-0.2-0.2-0.2l-2.1-0.3c-0.1,0-0.2,0-0.2,0.2l-0.4,3l0.6,0.1l0.1-0.9
	h0l1.3,0.2L29.2,7.1z M28.2,4.9C28.2,4.8,28.2,4.8,28.2,4.9L29.4,5c0,0,0,0,0,0l0,0.3l-1.3-0.2L28.2,4.9z M28,6.1L28,6.1L28,5.7
	l1.3,0.2l0,0.4L28,6.1z M25.7,47.2c-1.2-0.1-2.3,0.7-2.4,2c-0.1,1.3,0.8,2.3,2.1,2.4c1.3,0.1,2.3-0.8,2.4-2.1
	C28,48.2,26.9,47.2,25.7,47.2z M25.6,50.5c-0.6,0-1.1-0.6-1.1-1.3c0-0.6,0.6-1,1.2-1c0.6,0,1.1,0.6,1.1,1.1
	C26.7,50,26.2,50.5,25.6,50.5z M46.9,32l-0.5,1.2l0.7,1.1l-1.3,0.3l-0.5,1.2l2.5-0.6l1.8,0.7l0.4-1l-1.8-0.7L46.9,32z M47.1,36.5
	L46,38.3l0.7,0.4l0.5-0.7c0.4,0.3,0.4,0.7,0.1,1.1c-0.4,0.6-1.1,0.6-1.6,0.2c-0.5-0.3-0.9-1-0.5-1.6c0.2-0.4,0.6-0.5,1-0.4l0.2-1.1
	c-0.8-0.1-1.5,0.2-1.9,1c-0.7,1.1-0.4,2.4,0.7,3.1c1.1,0.7,2.3,0.4,3-0.7c0.4-0.6,0.5-1.2,0.2-1.9C48,37.2,47.6,36.9,47.1,36.5z
	 M44.1,40.2c-0.7-0.6-1.3-0.4-1.9,0.2l-1.1,1.2l3,2.7l0.7-0.8l-1.2-1l0,0l1.8,0.3l0.9-1v0l-2.1-0.2C44.6,41.1,44.5,40.6,44.1,40.2z
	 M43.2,41.9L43.2,41.9L43.2,41.9l-0.8-0.6l0.1-0.1c0.2-0.3,0.5-0.5,0.9-0.2C43.7,41.4,43.5,41.7,43.2,41.9z M41.9,45.1l-0.5-0.5
	l0.9-0.8l-0.6-0.7l-0.9,0.8l-0.4-0.5l1-0.8l-0.6-0.7L39,43.4l2.6,3.2l1.8-1.5l-0.6-0.7L41.9,45.1z M37.8,44.2l1.2,2.2l0,0l-2.9-1.2
	l-0.9,0.5l2,3.6l0.9-0.5l-1.2-2.2l0,0l2.9,1.2l0.9-0.5l-2-3.6L37.8,44.2z M11.7,9L11.7,9C11.7,9,11.7,9,11.7,9L11.7,9z M8.4,12.5
	L8.6,13c0.3-0.1,0.7-0.2,1.1-0.2c0,0.3,0,0.5,0.1,0.7l-0.3,0.3c0.2,0.1,0.3,0.2,0.4,0.3l0.5-0.7v0l1.6,1.5l0.4-0.4l-1.6-1.6l0.2-0.3
	c0.1,0,0.2,0.1,0.2,0.1l0.3-0.4c-0.3-0.1-0.7-0.3-1.1-0.4l-0.2,0.5c0,0,0.2,0.1,0.3,0.1l-0.4,0.5c-0.1-0.8-0.2-1.4-0.4-1.8l-0.5,0.3
	c0.1,0.2,0.2,0.5,0.3,0.8c-0.1,0-0.2,0-0.3,0.1c-0.1-0.5-0.2-0.8-0.3-1.1l-0.5,0.2c0.1,0.3,0.2,0.7,0.3,1
	C8.5,12.4,8.4,12.4,8.4,12.5z M12,8.6l-0.4-0.4l-2.3,2.3l0.4,0.4L12,8.6z M14.2,7.9l-0.1,0.5c0.2,0,0.5,0.1,0.9,0.2l0.2-0.5
	C14.8,8,14.5,7.9,14.2,7.9z M12,10c0,0.1,0.1,0.1,0.3,0.1c0.3,0,0.6,0.1,1,0.2l0.1-0.6c-0.5-0.1-0.8-0.1-0.9-0.1c0,0-0.1,0-0.1-0.1
	c0-0.2-0.1-0.5-0.2-0.8L11.7,9C11.9,9.4,12,9.7,12,10z M19.9,48.4c-0.2,0.5-0.4,1-1.1,0.8c-0.6-0.2-0.5-0.8-0.3-1.3l0.7-2l-1-0.4
	l-0.8,2.2c-0.2,0.5-0.3,1-0.1,1.5c0.2,0.4,0.7,0.7,1.1,0.9c0.4,0.2,1,0.2,1.4,0c0.5-0.2,0.7-0.7,0.9-1.2l0.8-2.2v0l-1-0.4L19.9,48.4
	z M14.7,6.8c-0.4-0.1-0.7-0.2-1-0.2l-0.1,0.5c0.3,0,0.6,0.1,1,0.2L14.7,6.8z M19.2,8.4l0.4,0.7l0,0l0.5-0.3l0,0L19,6.7l0,0L18.5,7
	l0,0l0.1,0.3l-2.1,1.1l-0.1-0.1l-0.5,0.3l0,0l0.3,0.6c0.3,0.5,0.3,1,0.1,1.4l0,0l0.6,0.1l0,0v0l0,0c0.1-0.3,0.2-0.7,0.1-1.1
	L19.2,8.4z M16.9,9.1c0-0.1-0.1-0.2-0.1-0.3l0,0l2.1-1.1L19,8L16.9,9.1z M12.5,46.9l1,0.6l0.6-0.5v0l1.3,0.8l-0.1,0.8l1,0.6l0.8-4.3
	l-1-0.6L12.5,46.9z M15.8,45.5L15.8,45.5l-0.3,1.3l-0.8-0.5L15.8,45.5L15.8,45.5L15.8,45.5L15.8,45.5z M11.5,42.3
	c0.7-0.6,0.5-1.3,0-1.9l-1.1-1.2l-3.1,2.7l0.7,0.8l1.2-1l0,0l-0.5,1.8l0.9,1v0l0.4-2.1C10.5,42.8,11.1,42.7,11.5,42.3z M9.9,41.3
	L9.9,41.3L9.9,41.3l0.7-0.8l0.1,0.1c0.2,0.3,0.4,0.6,0.1,0.9C10.4,41.8,10.1,41.6,9.9,41.3z M11.6,44.9l0.5-0.5l0.9,0.8l0.6-0.7
	l-0.9-0.8l0.4-0.5l1,0.8l0.6-0.7l-1.8-1.5l-2.6,3.1l1.8,1.5l0.6-0.7L11.6,44.9z M10.2,14c0.3,0.3,0.6,0.7,0.9,1.3l0.4-0.3
	c-0.3-0.6-0.6-1-0.9-1.4L10.2,14L10.2,14z"/>
</svg>
