<?xml version="1.0" encoding="utf-8"?>
<!-- Generator: Adobe Illustrator 22.1.0, SVG Export Plug-In . SVG Version: 6.00 Build 0)  -->
<svg version="1.1" id="圖層_1" xmlns="http://www.w3.org/2000/svg" xmlns:xlink="http://www.w3.org/1999/xlink" x="0px" y="0px"
	 viewBox="0 0 475 106" style="enable-background:new 0 0 475 106;" xml:space="preserve">
<style type="text/css">
	.st0{fill:#04BEEF;}
	.st1{fill:#FFFFFF;}
	.st2{fill:#EA8E0A;}
	.st3{fill:#0E7248;}
	.st4{fill:#0073B7;}
</style>
<g>
	<g>
		<path class="st0" d="M467.1,69.7l0-22.1h-0.9l0-13.9l8.8-18.9h-74.4l2.9-6.6l-32.9,0l0-2.8h-29l0,2.8H312l0,20.5h1.5l0,5.9h-5.9
			l0-19.8h-23.4l0,3.2h-10.6c-0.8-0.9-1.9-1.7-3.1-2.3c-1.7-0.8-3.5-1.3-5.3-1.3l-0.1,0c-4.6,0-7.1,1.9-8.5,3.7h-9.7l0,4.4l-11.1,0
			c-0.6-0.8-1.4-1.5-2.3-2.2c-1.9-1.5-4.3-2.2-6.9-2.2c-2.5,0.1-4.8,0.9-6.7,2.5c-0.8,0.6-1.4,1.3-2,1.9l-3.4,0l1.8-2.8h-26.1
			l-9.2,14.4l0-14.1h-0.8l5.7-12.4h-70.8l0,0.8c-1.6-0.6-3.2-1-4.9-1l-0.1,0c-2.2,0-4.3,0.6-6.3,1.7c-2.2,1.2-4,2.9-5.3,5.1
			c-1.2,2.1-1.8,4.3-1.8,6.7c0,2.5,0.5,4.8,1.8,6.9c1,1.7,2.3,3.1,3.9,4.3c-1,0.7-1.9,1.5-2.6,2.4l-25.9,0l0-1.5l21.4-5.7L99,1.7
			l-25.4,7l-0.1-7.2l-26,0L47.5,9l-6.2,0l4.8-7.5l-29.3,0L3,21.5l0.2,18.4l1.2,0L5.2,106l17.5-7l0,2.8l17.9,0l7.9-8l0.1,7.7l44.9,0
			l4.8-10.7l0,8.3l16.8-7.3l0,8.4l11.9-5.6h12.8l0,0.2h14.1l5.5-5.5l0.8,5.2h22.7l-0.7-4.3h2.5l0,0.2h12.5l2.6-2.3l0.4,2.1h4.8
			l-0.2,0.8h21.6l0-0.2h20l1.2-2.6l22.8-0.1l12.3-10.1l0-23.1h1.4L284,92.4l23.4-10.1l0-27.3h4.2l0.9,19.1L316,74l0,6.8h10.7l5,13.7
			h21l0,1.9h22.8l16.2-9.4l0-6.1h2l2.4-3.3l0,13h69.2l9.3-20.6l-7.5,0L467.1,69.7z"/>
		<path class="st1" d="M463.6,68.7l0-17.2h-6.9l6-5.2l0-14.2h0.6l6.2-13.4h-69.7L399.7,49l-6.6,0.2l2.1-1.7l0.1-24.8h-1.7l4.6-10.6
			l-31.1,0l0-2.8h-21.9l0,2.8h-29.6l0,13.4h1.5l0,13h-13l0-19.8h-16.3l0,19.8h-8.5l1.7-4.9h-3.4l4.3-11.8h-10.2
			c-0.5-1.1-1.4-2-2.8-2.7c-1.2-0.6-2.5-0.9-3.7-1l-0.1,0c-2.9,0-4.9,0.9-5.9,2.7c-0.2,0.4-0.4,0.7-0.6,1h-8.1l0,12h0.3l0,11.7h0
			l-0.1,39.5l18.4,0l10-8.2l0-21.3h-2.3l1.4-3.7h9.4l-0.1,35.6l16.3-7.1l0-28.5h9.3L317,44l0,13.3l-1.6,0.1l0.6,13.4l3.7-0.2l0,6.9
			h9.6l5,13.7h20.4l-5.4-13.7h20.6l0,4.3L356.4,82l0,11.2h18.2l13.6-7.9l0-7.6h3.7l7.8-10.8l0,20.4h63.3l6.1-13.5l-10,0L463.6,68.7z
			 M70.8,75.1l22.5-5.9L96,52.2l-25.4,6.3l-0.1-5.4l20.2,0l6.4-14.8l-26.6,0l-0.1-7.7l21.8-5.9l2.5-17.8l-24.6,6.8L70,5.4l-18.9,0
			l0.2,21l-3.5-13.5l-13,0l4.8-7.5l-20.9,0L6.6,22.9l0.2,13.8l1.2,0l0.8,64.4l17.5-7l0.1,4.5l12.9,0l12.8-13l-0.6-48.9h0l0.2,14h0
			l0.6,47.6l39.1,0l6.6-14.8l-26.9,0L70.8,75.1z M168.1,62.3l9.4-8.3l0.1-30.2h-2.7l5.7-12.4h-61.7l0,4.6c-0.9-1.5-2.1-2.6-3.6-3.5
			c-1.6-0.8-3.2-1.3-4.8-1.3l-0.1,0c-1.6,0-3.2,0.5-4.7,1.3c-1.6,0.9-2.9,2.1-3.8,3.7c-0.9,1.6-1.3,3.2-1.3,5c0,1.9,0.4,3.6,1.3,5.1
			c0.9,1.5,2.1,2.8,3.7,3.6c1.5,0.9,3.2,1.3,5,1.3c1.8,0,3.4-0.4,5-1.3c1.4-0.8,2.6-2,3.4-3.3l0,11.4c-0.9-1.4-2.1-2.6-3.6-3.4l0,0
			c-1.6-0.8-3.2-1.3-4.8-1.3l-0.1,0c-1.7,0-3.3,0.4-4.9,1.3c-1.6,0.9-2.9,2.2-3.8,3.8c-0.9,1.6-1.3,3.3-1.3,5c0,1.8,0.4,3.5,1.3,5
			c0.9,1.6,2.1,2.9,3.6,3.8c1.6,0.9,3.3,1.4,5.1,1.3c1.8,0,3.4-0.5,5-1.4c1.4-0.8,2.5-1.9,3.4-3.2l0,7.5H102L101.9,94l16.8-7.3
			l0,8.2l11.7-5.5l-0.4,2h13.4l0,0.2h9l9.4-9.3l1.5,9.1h15.5L174,62.3H168.1z M239.6,58h7.9l-5.9-19.3h1.7l4.9-12.4l-14.4,0l0-0.1
			c-0.4-1-1.2-2-2.4-2.9c-1.3-1-2.8-1.5-4.6-1.4c-1.7,0-3.3,0.6-4.5,1.6c-1.1,0.9-1.8,1.7-2.2,2.6c0,0.1-0.1,0.1-0.1,0.2l-11.8,0
			l0,9.1h-5.8l7.5-11.9h-17.7l-11.1,17.3l0,11.7h4.7l-4.5,4.2l0,10.1l1,0l-4.4,20.3h10.1l0,0.2h7.6l6.4-5.7l0.9,5.5h6.2l-0.2,0.8
			h14.3l1.1-5l0,4.7h19.6l5.7-12.3l-10.3,0L239.6,58z"/>
	</g>
	<g>
		<path class="st2" d="M24,24.7l11.1,0l-2.5-9.1l13,0l4.9,18.6l-13,0l-1.9-7.5l-3,7.5l-23.4,0L9,23.9L19.8,8.1l14.8,0L24,24.7z
			 M35.2,74.4l-2.8,7.4l-7.7,0l0.1,10.2L11,97.4l-0.7-58.7l38.3,0l0.5,46L37.9,96.2l-9.3,0l-0.1-9.9l6.8,0L35.2,74.4z M34.9,55.6
			l-0.1-7.3l-10.6,0l0.1,7.3L34.9,55.6z M35.1,72.2L35,57.4l-3,7.7l-7.5,0l0.1,7.1L35.1,72.2z M53.5,8.2l13.7,0l0.1,9.1l24.1-6.6
			l-1.7,12.2l-22.1,5.9l0.1,12.3l25.2,0l-4.2,9.6l-34.8,0L53.5,8.2z M67.7,53.5l0.1,8.4l24.8-6.2l-1.8,11.5l-22.8,6l0.2,13l25.5,0
			l-4.3,9.6l-34.8,0l-0.5-42.4L67.7,53.5z"/>
		<path class="st2" d="M110.2,36.1c1.2,0,2.4,0.4,3.6,1c1.2,0.6,2.1,1.6,2.8,2.8c0.7,1.2,1,2.5,1,3.8c0,1.3-0.3,2.6-1,3.7
			c-0.7,1.2-1.6,2.1-2.8,2.8c-1.2,0.7-2.4,1-3.7,1c-1.3,0-2.6-0.3-3.7-1c-1.1-0.7-2-1.6-2.7-2.8c-0.7-1.2-1-2.4-1-3.8
			c0-1.3,0.3-2.5,1-3.7c0.7-1.2,1.6-2.1,2.8-2.8C107.8,36.4,109,36.1,110.2,36.1z M110.2,13.9c1.2,0,2.3,0.3,3.5,1
			c1.2,0.6,2.1,1.6,2.8,2.8c0.7,1.2,1,2.5,1,3.8c0,1.3-0.3,2.5-1,3.7c-0.7,1.1-1.6,2.1-2.7,2.7c-1.1,0.7-2.4,1-3.6,1
			c-1.3,0-2.5-0.3-3.7-1c-1.2-0.7-2.1-1.6-2.7-2.7c-0.7-1.1-1-2.4-0.9-3.8c0-1.3,0.3-2.5,1-3.7c0.7-1.2,1.6-2.1,2.8-2.7
			C107.8,14.3,109,13.9,110.2,13.9z M104.4,59.2h11.7l0,25.9l-11.8,5.1L104.4,59.2z M160,22.5l-1.6,4l16.4,0l-0.1,26.4l-10.8,9.5
			l-3.8-0.1L160,80.3l-8.9,8.9h-5.3l0-8.8h3.5l0-18.1h-13.1l0.1-35.9h9.6l1.5-4h-15.3L132,85.9L121.1,91l0.1-76.9h55.1l-3.8,8.4H160
			z M148.2,65l-5,23.9H133l5-23.9H148.2z M147.1,35l0,5.1h16.4l-3.8,8.2h-12.6l0,5.8h16.8l0-19H147.1z M171.6,65l3.8,23.9h-10.2
			L161.4,65H171.6z"/>
		<path class="st3" d="M192.3,50l-8.5,7.9l0,6.4l22.6-0.1l3.6-7.1l-13.5,0.1l15.5-19.2h-11.4l-3.6,5.1h-2.8l10.8-17h-11.5l-9.9,15.5
			l0,8.3H192.3z M184.8,67.4l-3.7,17.2h7.6l3.7-17.2H184.8z M210.6,50.2l0,5.3h21.1l2.1-4.6l1.4,4.7h8.6l-4.8-15.9h-8.6l2.7,8.7
			h-12.5l4.7-12.2h16.1l2.8-7.2l-12.3,0l-0.7-1.7c-0.2-0.6-0.8-1.2-1.6-1.8c-0.8-0.6-1.8-0.9-2.9-0.9c-1.1,0-2.1,0.4-2.9,1
			c-0.8,0.7-1.3,1.2-1.6,1.8c-0.3,0.5-0.5,1.1-0.7,1.6l-10.9,0l0,7.2h5.4L210.6,50.2z M236.8,78.2l0-20.4h-9.7l0,0h-8.7l-5.7,26
			l-2.7-16.4h-7.6l2.9,17.2h7.3l-0.2,0.8h9l5.9-26.6L227,85.2h15.3l3.3-7.1L236.8,78.2z M193.2,79h-2.6l0,5.8h4l6.7-5.9l0.1-12.6
			l-8.1,0L193.2,79z"/>
		<path class="st3" d="M290.1,41.2l0-19.8h11.1l0,19.8h14.1l-3.8,8.1h-10.3l0,29.4L290,83.6l0.1-34.2h-11.7l0-8.1H290.1z M260,24.6
			c0.3-0.6,0.6-1.4,1.2-2.3c0.5-0.9,1.8-1.4,3.6-1.4c0.9,0,1.7,0.3,2.6,0.7c0.9,0.4,1.4,1,1.7,1.6l0.5,1.4h8.2l-2.5,6.8h-22.6l0-6.8
			H260z M253.2,36.3H277l-2.4,6.7h-21.5L253.2,36.3z M253.2,47.1H277l-2.5,6.7h-21.4L253.2,47.1z M253.1,58.3h23.2l0,17.4l-8.3,6.8
			l-14.9,0L253.1,58.3z M267.9,65h-6.4l0,10.8h6.4L267.9,65z"/>
		<path class="st4" d="M413.4,76.4l51.4,0l-3.8,8.3h-59l0.1-63.3h63.1l-3.8,8.2l-48,0L413.4,76.4z M437.4,54.2l0,13.8l-5.9,6.4
			h-14.1l0-20.1H437.4z M459.9,31.9l0,13.4l-6.7,5.8l-34.7,0l0-19.2H459.9z M429.7,60H425l0,8.7l4.7,0L429.7,60z M451.5,37.4h-24.7
			l0,8.5l24.7,0L451.5,37.4z M460.8,54.3l0,13.6l-5.8,6.5h-14.4l0-20H460.8z M453.1,60.2h-4.8l0,8.6l4.8,0L453.1,60.2z"/>
		<path class="st4" d="M331.3,76.4l4.5,12.4h14.7l-4.9-12.4H331.3z M385.4,65.1l7.8-0.4l3.3-13l-10.2,0.2l-2.8,5l-65.6,3l0.4,8.2
			l53.9-2.5l0,3.4H322l0,5.9h50.2l0,9.5l-13.4,0.1l0,6h14.9l11.7-6.8l0-8.7h5l4.3-5.9h-9.2L385.4,65.1z M347.5,25.4h-28.1l0,31.9
			l62.5-2.4l10.4-8.5l0.1-21h-28.2l0-2.4h26.1l3.6-8.2h-29.7l0-2.8h-16.7l0,2.8l-29.6,0l0,8.2h29.6L347.5,25.4z M347.5,49.1l-14,0.8
			l0-5.1h14L347.5,49.1z M347.5,37.4h-14l0-4.5h14L347.5,37.4z M364.2,44.7h11l3.7-7.3h-14.7l0-4.5h15.1l0,14.5l-15.1,0.8
			L364.2,44.7z"/>
	</g>
</g>
</svg>
