<?xml version="1.0" encoding="utf-8"?>
<!-- Generator: Adobe Illustrator 22.0.1, SVG Export Plug-In . SVG Version: 6.00 Build 0)  -->
<svg version="1.1" id="圖層_1" xmlns="http://www.w3.org/2000/svg" xmlns:xlink="http://www.w3.org/1999/xlink" x="0px" y="0px"
	 viewBox="0 0 178 170" style="enable-background:new 0 0 178 170;" xml:space="preserve">
<style type="text/css">
	.st0{fill:#176BB6;}
	.st1{fill:#FFFFFF;}
</style>
<g>
	<path class="st0" d="M89,0C49.8,0,16.8,26.6,7,62.7c13.2-7.5,34.1-14.1,60.4-4.9c0,1.5,11.7-25.7,66.5-16.6
		c3.4,0.6,4.6,1.5,3.1,3.1c-1.5,1.5-46.1,1.9-61.9,28.2c-1.5,3.1-4.4,1.8-6.1,1.5c-15.5-2.8-33.6-9-64.2,0.8C4.2,78.1,4,81.5,4,85
		c0,8.8,1.3,17.2,3.8,25.2c17.3-9.2,39.7-14.8,64.3-5.5c0,2.3,23.4-42.1,91.2-32.8c5.2,0.7,7,2.3,4.7,4.7s-63.2,4.7-84.2,46.8
		c-2.3,4.7-6.8,2.8-9.4,2.3c-18.8-3.4-35.1-9.3-60.7-1.3C27.9,151.5,56.3,170,89,170c46.9,0,85-38.1,85-85S135.9,0,89,0z"/>
	<path class="st1" d="M74.4,125.7c2.6,0.5,7,2.3,9.4-2.3c21.1-42.1,81.9-44.5,84.2-46.8s0.5-4-4.7-4.7
		c-67.8-9.4-91.2,35.1-91.2,32.8c-24.6-9.2-46.9-3.6-64.3,5.5c1.5,4.9,3.5,9.7,5.9,14.2C39.3,116.4,55.6,122.3,74.4,125.7z"/>
	<path class="st1" d="M68.9,73.9c1.7,0.3,4.6,1.5,6.1-1.5c15.8-26.3,60.4-26.6,61.9-28.2c1.5-1.5,0.3-2.5-3.1-3.1
		c-54.8-9.1-66.5,18.2-66.5,16.6C41.1,48.6,20.2,55.2,7,62.7c-1.1,3.9-1.8,7.9-2.3,12C35.3,65,53.4,71.1,68.9,73.9z"/>
</g>
</svg>
