<?xml version="1.0" encoding="utf-8"?>
<!-- Generator: Adobe Illustrator 22.0.1, SVG Export Plug-In . SVG Version: 6.00 Build 0)  -->
<svg version="1.1" id="圖層_1" xmlns="http://www.w3.org/2000/svg" xmlns:xlink="http://www.w3.org/1999/xlink" x="0px" y="0px"
	 viewBox="0 0 178 170" style="enable-background:new 0 0 178 170;" xml:space="preserve">
<style type="text/css">
	.st0{fill:#FFFFFF;}
	.st1{fill:#EA4C3A;}
</style>
<g>
	<rect x="18" y="13.1" class="st0" width="143.1" height="143.1"/>
	<path class="st1" d="M0.5-0.4v170h178v-170H0.5z M161.4,152.5H17.6V16.7h143.8V152.5z M32.4,146.3c14.7,0,26.8-19.7,33.8-30.2
		c12.5-4.4,25.6-7.6,38.8-9.1c7.3,7.9,15.5,16.2,25.3,20.9c7.6,3.6,19,3.5,22.5-5.8c8.5-22.5-31.4-25.7-44.1-24.8
		C101.3,88.8,94,79.8,89,69.6c2.3-7.4,13.9-39.9,2.7-44.9l0,0c-9.5-5.5-17.1,1.9-18.5,11.3c-1.7,11.4,1.3,23.7,5.8,34.1
		c-4.6,13.4-11.3,26.2-18.9,38.1c-9.9,3.7-20.2,8.2-27.9,15.6C27.1,128.7,18.9,146.3,32.4,146.3z M143.5,119.6
		c-5.6,7.3-22.8-9.9-26.1-13.2C120.5,106.5,150.8,110.1,143.5,119.6z M85.6,32.2l0.2,0c0.3,0.2,0.7,0.4,1.1,0.6
		c-0.5,7.2-1.7,14.4-3.3,21.3C82.7,50.3,79,33,85.6,32.2z M84.8,81.2c3.8,6.1,8.1,11.9,12.8,17.4c-8.1,1.3-16,3-23.9,5.3
		C77.4,97.3,81.4,89.5,84.8,81.2z M49.5,123.1c-3.9,4.9-9,11.2-15.1,13.3C35.9,130.4,44.6,125.8,49.5,123.1z"/>
</g>
</svg>
